<svg version="1.0" xmlns="http://www.w3.org/2000/svg" width="94.667" height="97.333" viewBox="0 0 71 73"><path d="M15.3 1.5c-4.7 3.3-5.4 13.4-1.2 17.6 1.7 1.7 3.4 1.9 20.8 1.9 10.4 0 19.7-.3 20.6-.6 4-1.6 5.7-10.1 3-15.4-2-3.8-4.3-5-9.7-5-5.3 0-10.1 2.8-11.9 6.8l-1.3 3-1.5-3c-.8-1.7-2.9-3.9-4.5-4.9-3.8-2.3-11.3-2.5-14.3-.4zm11.8 7.4c4.5 4.6 3.9 6.1-2.4 6.1-5.7 0-7.7-1.2-7.7-4.5 0-5.1 5.6-6 10.1-1.6zm26.3.3c1.4 4.1-.6 5.8-7 5.8s-7-1.5-2.4-6.1c3.8-3.9 8-3.7 9.4.3zM0 31.5V37h31V26H0v5.5zm40 0V37h31V26H40v5.5zM4 54.4c0 12 .2 13.6 2.1 16 2 2.5 2.3 2.6 13.5 2.6H31V41H4v13.4zM40 57v16h11.4c11.2 0 11.5-.1 13.5-2.6 1.9-2.4 2.1-4 2.1-16V41H40v16z"/></svg>