<svg version="1.0" xmlns="http://www.w3.org/2000/svg" width="682.667" height="682.667" viewBox="0 0 512 512"><path d="M128.6 19C80 25.1 39.1 54.6 16.7 99.5-10.9 154.8-3.4 221 35.7 269c8.4 10.3 209.5 221.8 211.9 222.9 1.4.6 4.3 1.4 6.4 1.7 9.2 1.5 4.2 6.3 115.2-110.9C425.7 323.2 473.8 272 476.3 269c44-53.9 47.4-129.8 8.4-187.5-22-32.5-54.9-54.2-92.8-61.1-14-2.6-37.3-2.3-50.9.5-31 6.5-53.2 18.9-76.7 42.9l-8.2 8.4-10.8-10.9c-22.1-21.9-45.4-34.6-74.1-40.4-11-2.2-32.5-3.2-42.6-1.9zM170 58c9.9 2.6 24.1 9 33.1 15 3.6 2.4 14.4 12.4 24.4 22.6 18.4 18.7 22 21.4 28.7 21.4 6.6-.1 10.9-3.3 26.3-19.5 20.9-21.9 32.1-30 51.3-36.9 24.1-8.6 54.3-7.1 77.9 4C432.1 74.3 452 94.1 463 116c22.3 44.1 15.1 97.3-18.1 133.5-3.5 3.8-47.5 50.3-97.6 103.2L256 449l-90.7-95.8C57 239 63.1 245.6 56.2 235.1 18 177 38.2 96 98.5 65.8c8.7-4.4 14.7-6.5 25.5-8.9 11.7-2.6 33.7-2.1 46 1.1z"/></svg>