<svg version="1.0" xmlns="http://www.w3.org/2000/svg" width="1120" height="1652" viewBox="0 0 840 1239"><path d="M387 42c-119 12.2-221.9 83.7-274.4 190.4C96.6 265 87 296 80.8 336c-2.1 13-2.2 17.4-2.5 115.7L77.9 554H21v628h799V554h-56.9l-.4-99.8c-.4-107.8-.4-107.2-6.2-136.9-10.6-54.2-34.1-104.9-69.1-148.8-11.1-13.8-37.7-40.6-50.9-51.1-50.9-40.6-107-64.9-170.6-73.9-13.3-1.9-65.3-2.9-78.9-1.5zm71 115.8c24.3 4.4 41.9 10.1 63.5 20.7 66.5 32.7 112.7 95.7 124.7 170.4 2.1 13.2 2.2 16.7 2.5 109.3l.4 95.8H192v-91.3c0-56.9.4-95.5 1.1-102.3 4.1-42.5 21.4-85 48.6-119.8 8.1-10.4 29.4-31 40.4-39.3 32.8-24.7 71.7-40.3 112.4-45.2 13.6-1.6 50.2-.6 63.5 1.7z"/></svg>