<?xml version="1.0" standalone="no"?>
<!DOCTYPE svg PUBLIC "-//W3C//DTD SVG 20010904//EN"
 "http://www.w3.org/TR/2001/REC-SVG-20010904/DTD/svg10.dtd">
<svg version="1.0" xmlns="http://www.w3.org/2000/svg"
 width="840.000000pt" height="1239.000000pt" viewBox="0 0 840.000000 1239.000000"
 preserveAspectRatio="xMidYMid meet">

<g transform="translate(0.000000,1239.000000) scale(0.100000,-0.100000)"
fill="#000000" stroke="none">
<path d="M3870 11970 c-1190 -122 -2219 -837 -2744 -1904 -160 -326 -256 -636
-318 -1036 -21 -130 -22 -174 -25 -1157 l-4 -1023 -284 0 -285 0 0 -3140 0
-3140 3995 0 3995 0 0 3140 0 3140 -284 0 -285 0 -4 998 c-4 1078 -4 1072 -62
1369 -106 542 -341 1049 -691 1488 -111 138 -377 406 -509 511 -509 406 -1070
649 -1706 739 -133 19 -653 29 -789 15z m710 -1158 c243 -44 419 -101 635
-207 665 -327 1127 -957 1247 -1704 21 -132 22 -167 25 -1093 l4 -958 -2285 0
-2286 0 0 913 c0 569 4 955 11 1023 41 425 214 850 486 1198 81 104 294 310
404 393 328 247 717 403 1124 452 136 16 502 6 635 -17z"/>
</g>
</svg>
